<?xml version="1.0" encoding="UTF-8" standalone="no"?>
<!-- Created with Inkscape (http://www.inkscape.org/) -->

<svg
   width="63.390152mm"
   height="50.568344mm"
   viewBox="0 0 63.390152 50.568344"
   version="1.1"
   id="svg5"
   inkscape:version="1.2 (dc2aedaf03, 2022-05-15)"
   sodipodi:docname="logo.svg"
   inkscape:export-filename="logo.png"
   inkscape:export-xdpi="96"
   inkscape:export-ydpi="96"
   xmlns:inkscape="http://www.inkscape.org/namespaces/inkscape"
   xmlns:sodipodi="http://sodipodi.sourceforge.net/DTD/sodipodi-0.dtd"
   xmlns:xlink="http://www.w3.org/1999/xlink"
   xmlns="http://www.w3.org/2000/svg"
   xmlns:svg="http://www.w3.org/2000/svg"
   xmlns:rdf="http://www.w3.org/1999/02/22-rdf-syntax-ns#"
   xmlns:cc="http://creativecommons.org/ns#"
   xmlns:dc="http://purl.org/dc/elements/1.1/">
  <title
     id="title36804">epicki soundbard V3 logo</title>
  <sodipodi:namedview
     id="namedview7"
     pagecolor="#ffffff"
     bordercolor="#000000"
     borderopacity="0.25"
     inkscape:showpageshadow="2"
     inkscape:pageopacity="0.0"
     inkscape:pagecheckerboard="0"
     inkscape:deskcolor="#d1d1d1"
     inkscape:document-units="mm"
     showgrid="false"
     showguides="true"
     inkscape:zoom="1.4503086"
     inkscape:cx="110.6661"
     inkscape:cy="77.569696"
     inkscape:window-width="1920"
     inkscape:window-height="1001"
     inkscape:window-x="-9"
     inkscape:window-y="41"
     inkscape:window-maximized="1"
     inkscape:current-layer="layer1">
    <sodipodi:guide
       position="-7.850218,35.467395"
       orientation="-1,0"
       id="guide392"
       inkscape:locked="false"
       inkscape:label=""
       inkscape:color="rgb(0,134,229)" />
    <sodipodi:guide
       position="9.6497816,35.467395"
       orientation="-1,0"
       id="guide396"
       inkscape:label=""
       inkscape:locked="false"
       inkscape:color="rgb(0,134,229)" />
    <sodipodi:guide
       position="34.649782,35.467395"
       orientation="-1,0"
       id="guide464"
       inkscape:label=""
       inkscape:locked="false"
       inkscape:color="rgb(0,134,229)" />
    <sodipodi:guide
       position="34.64978,51.913757"
       orientation="1,0"
       id="guide466"
       inkscape:locked="false" />
    <sodipodi:guide
       position="-10.350217,0.085324815"
       orientation="0,1"
       id="guide468"
       inkscape:locked="false"
       inkscape:label=""
       inkscape:color="rgb(0,134,229)" />
    <sodipodi:guide
       position="-10.350217,50.467537"
       orientation="0,1"
       id="guide470"
       inkscape:label=""
       inkscape:locked="false"
       inkscape:color="rgb(0,134,229)" />
    <sodipodi:guide
       position="54.589895,28.081966"
       orientation="-1,0"
       id="guide5768"
       inkscape:locked="false" />
    <sodipodi:guide
       position="45.780752,49.318347"
       orientation="-1,0"
       id="guide5857"
       inkscape:label=""
       inkscape:locked="false"
       inkscape:color="rgb(0,134,229)" />
    <sodipodi:guide
       position="68.280756,49.318347"
       orientation="-1,0"
       id="guide5859"
       inkscape:label=""
       inkscape:locked="false"
       inkscape:color="rgb(0,134,229)" />
    <sodipodi:guide
       position="-10.350273,15.276366"
       orientation="0,1"
       id="guide5867"
       inkscape:label=""
       inkscape:locked="false"
       inkscape:color="rgb(0,134,229)" />
    <sodipodi:guide
       position="-10.350273,35.276365"
       orientation="0,1"
       id="guide5869"
       inkscape:label=""
       inkscape:locked="false"
       inkscape:color="rgb(0,134,229)" />
  </sodipodi:namedview>
  <defs
     id="defs2">
    <linearGradient
       inkscape:collect="always"
       id="linearGradient19543">
      <stop
         style="stop-color:#669aff;stop-opacity:1;"
         offset="0"
         id="stop19541" />
      <stop
         style="stop-color:#70f0f8;stop-opacity:1;"
         offset="1"
         id="stop19539" />
    </linearGradient>
    <linearGradient
       inkscape:collect="always"
       id="linearGradient8227">
      <stop
         style="stop-color:#e7e034;stop-opacity:1;"
         offset="0"
         id="stop8223" />
      <stop
         style="stop-color:#fff78f;stop-opacity:1;"
         offset="1"
         id="stop8225" />
    </linearGradient>
    <inkscape:path-effect
       effect="fillet_chamfer"
       id="path-effect7694"
       is_visible="true"
       lpeversion="1"
       nodesatellites_param="F,0,0,1,0,0.79375,0,1 @ F,0,0,1,0,0.79375,0,1 @ F,0,0,1,0,0.79375,0,1 @ F,0,0,1,0,0.79375,0,1 @ F,0,0,1,0,0.79375,0,1 @ F,0,0,1,0,0.79375,0,1 | F,0,0,1,0,0.79375,0,1 @ F,0,0,1,0,0.79375,0,1 @ F,0,0,1,0,0.79375,0,1 @ F,0,0,1,0,0.79375,0,1 @ F,0,0,1,0,0.79375,0,1 @ F,0,0,1,0,0.79375,0,1 | F,0,0,1,0,0.79375,0,1 @ F,0,0,1,0,0.79375,0,1 @ F,0,0,1,0,0.79375,0,1 @ F,0,0,1,0,0.79375,0,1 @ F,0,0,1,0,0.79375,0,1 @ F,0,0,1,0,0.79375,0,1"
       unit="px"
       method="auto"
       mode="F"
       radius="3"
       chamfer_steps="1"
       flexible="false"
       use_knot_distance="true"
       apply_no_radius="true"
       apply_with_radius="true"
       only_selected="false"
       hide_knots="false" />
    <inkscape:path-effect
       effect="fillet_chamfer"
       id="path-effect6530"
       is_visible="true"
       lpeversion="1"
       nodesatellites_param="F,0,0,1,0,1,0,1 @ F,0,0,1,0,1,0,1 @ F,0,0,1,0,1,0,1 @ F,0,0,1,0,1,0,1 | F,0,0,1,0,1,0,1 @ F,0,0,1,0,1,0,1 @ F,0,0,1,0,1,0,1 @ F,0,0,1,0,1,0,1 | F,0,0,1,0,1,0,1 @ F,0,0,1,0,1,0,1 @ F,0,0,1,0,1,0,1 @ F,0,0,1,0,1,0,1 @ F,0,0,1,0,1,0,1 @ F,0,0,1,0,1,0,1 @ F,0,0,1,0,1,0,1 @ F,0,0,1,0,1,0,1 | F,0,0,1,0,1,0,1 @ F,0,0,1,0,1,0,1 @ F,0,0,1,0,1,0,1 @ F,0,0,1,0,1,0,1 | F,0,0,1,0,1,0,1 @ F,0,0,1,0,1,0,1 @ F,0,0,1,0,1,0,1 @ F,0,0,1,0,1,0,1 | F,0,0,1,0,1,0,1 @ F,0,0,1,0,1,0,1 @ F,0,0,1,0,1,0,1 @ F,0,0,1,0,1,0,1 | F,0,0,1,0,1,0,1 @ F,0,0,1,0,1,0,1 @ F,0,0,1,0,1,0,1 @ F,0,0,1,0,1,0,1 | F,0,0,1,0,1,0,1 @ F,0,0,1,0,1,0,1 @ F,0,0,1,0,1,0,1 @ F,0,0,1,0,1,0,1 @ F,0,0,1,0,1,0,1 @ F,0,0,1,0,1,0,1 | F,0,0,1,0,1,0,1 @ F,0,0,1,0,1,0,1 @ F,0,0,1,0,1,0,1 @ F,0,0,1,0,1,0,1 | F,0,0,1,0,1,0,1 @ F,0,0,1,0,1,0,1 @ F,0,0,1,0,1,0,1 @ F,0,0,1,0,1,0,1 | F,0,0,1,0,1,0,1 @ F,0,0,1,0,1,0,1 @ F,0,0,1,0,1,0,1 @ F,0,0,1,0,1,0,1 | F,0,0,1,0,1,0,1 @ F,0,0,1,0,1,0,1 @ F,0,0,1,0,1,0,1 @ F,0,0,1,0,1,0,1 | F,0,0,1,0,1,0,1 @ F,0,0,1,0,1,0,1 @ F,0,0,1,0,1,0,1 @ F,0,0,1,0,1,0,1 | F,0,0,1,0,1,0,1 @ F,0,0,1,0,1,0,1 @ F,0,0,1,0,1,0,1 @ F,0,0,1,0,1,0,1 | F,0,0,1,0,1,0,1 @ F,0,0,1,0,1,0,1 @ F,0,0,1,0,1,0,1 @ F,0,0,1,0,1,0,1 | F,0,0,1,0,1,0,1 @ F,0,0,1,0,1,0,1 @ F,0,0,1,0,1,0,1 @ F,0,0,1,0,1,0,1 | F,0,0,1,0,1,0,1 @ F,0,0,1,0,1,0,1 @ F,0,0,1,0,1,0,1 @ F,0,0,1,0,1,0,1"
       unit="mm"
       method="auto"
       mode="F"
       radius="1"
       chamfer_steps="1"
       flexible="false"
       use_knot_distance="true"
       apply_no_radius="true"
       apply_with_radius="true"
       only_selected="false"
       hide_knots="false" />
    <inkscape:path-effect
       effect="fillet_chamfer"
       id="path-effect5972"
       is_visible="true"
       lpeversion="1"
       nodesatellites_param="F,0,0,1,0,2.5,0,1 @ F,0,0,1,0,2.5,0,1 @ F,0,0,1,0,2.5,0,1 @ F,0,0,1,0,2.5,0,1"
       unit="mm"
       method="auto"
       mode="F"
       radius="2.5"
       chamfer_steps="1"
       flexible="false"
       use_knot_distance="true"
       apply_no_radius="true"
       apply_with_radius="true"
       only_selected="false"
       hide_knots="false" />
    <inkscape:path-effect
       effect="fillet_chamfer"
       id="path-effect5650"
       is_visible="true"
       lpeversion="1"
       nodesatellites_param="F,0,0,1,0,2.5,0,1 @ F,0,0,1,0,2.5,0,1 @ F,0,0,1,0,2.5,0,1 @ F,0,0,1,0,2.5,0,1"
       unit="mm"
       method="auto"
       mode="F"
       radius="2.5"
       chamfer_steps="1"
       flexible="false"
       use_knot_distance="true"
       apply_no_radius="true"
       apply_with_radius="true"
       only_selected="false"
       hide_knots="false" />
    <inkscape:path-effect
       effect="fillet_chamfer"
       id="path-effect4964"
       is_visible="true"
       lpeversion="1"
       nodesatellites_param="F,0,0,1,0,0,0,1 @ F,0,0,1,0,0,0,1 @ F,0,0,1,0,0,0,1 @ F,0,0,1,0,0,0,1"
       unit="px"
       method="auto"
       mode="F"
       radius="0"
       chamfer_steps="1"
       flexible="false"
       use_knot_distance="true"
       apply_no_radius="true"
       apply_with_radius="true"
       only_selected="false"
       hide_knots="false" />
    <linearGradient
       id="linearGradient4052"
       inkscape:swatch="solid">
      <stop
         style="stop-color:#000000;stop-opacity:1;"
         offset="0"
         id="stop4050" />
    </linearGradient>
    <marker
       style="overflow:visible"
       id="Arrow4"
       refX="0"
       refY="0"
       orient="auto-start-reverse"
       inkscape:stockid="Arrow4"
       markerWidth="5"
       markerHeight="6"
       viewBox="0 0 5 6"
       inkscape:isstock="true"
       inkscape:collect="always"
       preserveAspectRatio="xMidYMid">
      <path
         style="fill:context-stroke;fill-rule:evenodd;stroke:none"
         d="m 1,0 -3,3 h -2 l 3,-3 -3,-3 h 2 z"
         id="path1741" />
    </marker>
    <marker
       style="overflow:visible"
       id="Scissors"
       refX="0"
       refY="0"
       orient="auto"
       inkscape:stockid="Scissors"
       markerWidth="15.249176"
       markerHeight="9.0857267"
       viewBox="0 0 15.249177 9.0857269"
       inkscape:isstock="true"
       inkscape:collect="always"
       preserveAspectRatio="xMidYMid">
      <path
         style="fill:context-stroke"
         d="M 9.0898857,-3.6061018 C 8.1198849,-4.7769976 6.3697607,-4.7358294 5.0623558,-4.2327734 l -8.2124046,3.0779029 c -2.3882933,-1.3067135 -4.7482873,-0.9325372 -4.7482873,-1.5687873 0,-0.4973164 0.4566662,-0.3883222 0.3883068,-1.6831941 -0.065635,-1.2432767 -1.3635771,-2.1630796 -2.5903987,-2.0816435 -1.227271,-0.00735 -2.499439,0.9331613 -2.510341,2.2300611 -0.09143,1.3063864 1.007209,2.5196896 2.306764,2.6052316 1.5223406,0.2266616 4.218258,-0.6955566 5.482945,1.57086006 -0.9422847,1.73825774 -2.6140244,1.74307674 -4.1255107,1.65607034 -1.2548743,-0.072235 -2.7620933,0.2873979 -3.3606483,1.5208605 -0.578367,1.1820862 -0.0112,2.8646022 1.316749,3.226412 1.3401912,0.4918277 3.1806689,-0.129711 3.4993722,-1.6707242 0.2456585,-1.187823 -0.5953659,-1.7459574 -0.2725074,-2.1771537 0.2436135,-0.32536 1.7907806,-0.1368452 4.5471053,-1.3748244 L 5.6763468,4.2330688 C 6.8000164,4.5467672 8.1730685,4.5362646 9.1684433,3.4313614 l -9.22008423,-3.48508362 z m -18.3078016,-1.900504 c 1.294559,0.7227998 1.1888392,2.6835702 -0.1564272,3.0632889 -1.2165179,0.423661 -2.7710269,-0.7589694 -2.3831779,-2.0774648 0.227148,-1.0818519 1.653387,-1.480632 2.5396051,-0.9858241 z m 0.056264,8.0173649 c 1.3508301,0.4988648 1.1214429,2.7844356 -0.2522207,3.091609 -0.9110594,0.3163391 -2.2135494,-0.1387976 -2.3056964,-1.2121394 -0.177609,-1.305055 1.356085,-2.4841482 2.5579171,-1.8794696 z"
         id="sizzorsPath"
         transform="scale(0.7)" />
    </marker>
    <marker
       style="overflow:visible"
       id="marker1427"
       refX="0"
       refY="0"
       orient="auto-start-reverse"
       inkscape:stockid="Arrow1"
       markerWidth="4.0606599"
       markerHeight="6.7071061"
       viewBox="0 0 4.0606602 6.7071068"
       inkscape:isstock="true"
       inkscape:collect="always"
       preserveAspectRatio="xMidYMid">
      <path
         style="fill:none;stroke:context-stroke;stroke-width:1;stroke-linecap:butt"
         d="M 3,-3 0,0 3,3"
         id="path1425"
         transform="rotate(180,0.125,0)"
         sodipodi:nodetypes="ccc" />
    </marker>
    <marker
       style="overflow:visible"
       id="marker1387"
       refX="0"
       refY="0"
       orient="auto-start-reverse"
       inkscape:stockid="Arrow1"
       markerWidth="4.0606599"
       markerHeight="6.7071066"
       viewBox="0 0 4.0606602 6.7071068"
       inkscape:isstock="true"
       inkscape:collect="always"
       preserveAspectRatio="xMidYMid">
      <path
         style="fill:none;stroke:context-stroke;stroke-width:1;stroke-linecap:butt"
         d="M 3,-3 0,0 3,3"
         id="path1385"
         transform="rotate(180,0.125,0)"
         sodipodi:nodetypes="ccc" />
    </marker>
    <marker
       style="overflow:visible"
       id="Arrow1"
       refX="0"
       refY="0"
       orient="auto-start-reverse"
       inkscape:stockid="Arrow1"
       markerWidth="4.0606604"
       markerHeight="6.7071066"
       viewBox="0 0 4.0606602 6.7071068"
       inkscape:isstock="true"
       inkscape:collect="always"
       preserveAspectRatio="xMidYMid">
      <path
         style="fill:none;stroke:context-stroke;stroke-width:1;stroke-linecap:butt"
         d="M 3,-3 0,0 3,3"
         id="path5057"
         transform="rotate(180,0.125,0)"
         sodipodi:nodetypes="ccc" />
    </marker>
    <marker
       style="overflow:visible"
       id="Arrow3"
       refX="0"
       refY="0"
       orient="auto-start-reverse"
       inkscape:stockid="Arrow3"
       markerWidth="4.2071066"
       markerHeight="6.9999995"
       viewBox="0 0 4.2071068 7"
       inkscape:isstock="true"
       inkscape:collect="always"
       preserveAspectRatio="xMidYMid">
      <path
         style="fill:none;stroke:context-stroke;stroke-width:1;stroke-linecap:round"
         d="M 3,-3 0,0 3,3"
         id="arrow3"
         transform="rotate(180,0.125,0)"
         sodipodi:nodetypes="ccc" />
    </marker>
    <inkscape:path-effect
       effect="fillet_chamfer"
       id="path-effect473"
       is_visible="true"
       lpeversion="1"
       nodesatellites_param="F,0,0,1,0,2.5,0,1 @ F,0,0,1,0,2.5,0,1 @ F,0,0,1,0,2.5,0,1 @ F,0,0,1,0,2.5,0,1 @ F,0,0,1,0,2.5,0,1 @ F,0,0,1,0,2.5,0,1"
       unit="mm"
       method="auto"
       mode="C"
       radius="2.5"
       chamfer_steps="1"
       flexible="false"
       use_knot_distance="true"
       apply_no_radius="true"
       apply_with_radius="true"
       only_selected="false"
       hide_knots="false" />
    <linearGradient
       inkscape:collect="always"
       xlink:href="#linearGradient8227"
       id="linearGradient8377"
       x1="52.661957"
       y1="42.053761"
       x2="88.561737"
       y2="42.053761"
       gradientUnits="userSpaceOnUse" />
    <linearGradient
       inkscape:collect="always"
       xlink:href="#linearGradient19543"
       id="linearGradient19545"
       x1="90.833313"
       y1="42.046021"
       x2="116.05211"
       y2="42.046021"
       gradientUnits="userSpaceOnUse" />
  </defs>
  <g
     inkscape:label="Layer 1"
     inkscape:groupmode="layer"
     id="layer1"
     transform="translate(-52.661959,-16.761848)">
    <g
       id="g400"
       style="stroke:#000000;stroke-width:2.5;stroke-dasharray:none;stroke-opacity:1">
      <path
         id="rect174"
         style="fill:url(#linearGradient8377);fill-opacity:1;stroke:#000000;stroke-width:2.5;stroke-dasharray:none;stroke-opacity:1"
         d="m 85.386847,18.457893 -14.2499,11.80952 c -1.063088,0.881028 -3.044179,1.595255 -4.424891,1.595268 -3.683689,3.5e-5 -6.616311,4.4e-5 -10.3,4.6e-5 -1.380712,0 -2.500006,1.119289 -2.500014,2.500001 l -8.3e-5,15.382072 a 2.4999983,2.4999983 45.000293 0 0 2.499986,2.500012 l 10.300111,4.9e-5 a 6.9345685,6.9345685 19.825151 0 1 4.424891,1.595253 l 14.2499,11.809516 a 1.1750779,1.1750779 154.82501 0 0 1.924891,-0.904759 v -45.38222 a 1.1750776,1.1750776 25.17498 0 0 -1.924891,-0.904758 z"
         sodipodi:nodetypes="ccccccc"
         inkscape:path-effect="#path-effect473"
         inkscape:original-d="M 87.311738,16.862651 69.212056,31.862655 c -5.833333,6.7e-5 -9.466667,7.3e-5 -15.3,7.3e-5 l -1.11e-4,20.382072 15.300111,7.3e-5 18.099682,14.999998 z" />
    </g>
    <path
       id="rect4164"
       style="fill:url(#linearGradient19545);fill-opacity:1;stroke:#000000;stroke-width:2.5"
       d="m 94.583313,18.011848 h 17.718797 a 2.5,2.5 45 0 1 2.5,2.5 l 0,43.068345 a 2.5,2.5 135 0 1 -2.5,2.5 H 94.583313 a 2.5,2.5 45 0 1 -2.5,-2.5 V 20.511848 a 2.5,2.5 135 0 1 2.5,-2.5 z"
       inkscape:original-d="M 92.083313,18.011848 H 114.80211 V 66.080193 H 92.083313 Z"
       inkscape:path-effect="#path-effect5972" />
    <path
       id="path5875"
       style="color:#000000;fill:#000000;-inkscape-stroke:none"
       d="m 104.70679,21.705196 v 0.144572 a 1,1 45 0 0 1,1 h 0.5001 a 1,1 135 0 0 1,-1 v -0.144572 a 1,1 45 0 0 -1,-1 h -0.5001 a 1,1 135 0 0 -1,1 z m -5.01365,1.915645 v 0.828252 a 1,1 45 0 0 1,1 h 0.50011 a 1,1 135 0 0 1,-1 l 0,-0.828252 a 1,1 45 0 0 -1,-1 h -0.50011 a 1,1 135 0 0 -1,1 z m 10.00042,0.822689 0,16.6092 v 1.0021 17.6092 a 1,1 45 0 0 1,1 h 0.49959 a 1,1 135 0 0 1,-1 v -16.6092 -1.0021 -17.6092 a 1,1 45 0 0 -1,-1 h -0.49959 a 1,1 135 0 0 -1,1 z m -4.98677,1.275375 0,2.788855 a 1,1 45 0 0 1,1 h 0.5001 a 1,1 135 0 0 1,-1 v -2.788855 a 1,1 45 0 0 -1,-1 l -0.5001,0 a 1,1 135 0 0 -1,1 z m -10.013345,1.734261 v 1.576009 a 1,1 45 0 0 1,1 h 0.500106 a 1,1 135 0 0 1,-1 v -1.576009 a 1,1 45 0 0 -1,-1 h -0.500106 a 1,1 135 0 0 -1,1 z m 4.999695,1.550809 0,2.050916 a 1,1 45 0 0 1,1 h 0.50011 a 1,1 135 0 0 1,-1 l 0,-2.050916 a 1,1 45 0 0 -1,-1 h -0.50011 a 1,1 135 0 0 -1,1 z m 6.50034,3.048125 -0.50015,0.0035 a 1.0005059,1.0005059 134.61184 0 0 -0.99346,1.007007 l 0.0165,2.523281 a 1.0001661,1.0001661 44.631088 0 0 1.0065,0.993623 l 0.50014,-0.0032 a 0.99983852,0.99983852 134.63122 0 0 0.99346,-1.006335 l -0.0165,-2.524961 a 0.99948971,0.99948971 44.611972 0 0 -1.0065,-0.992951 z m -11.500035,1.002772 v 7.999906 l 0,9.999907 a 1,1 45 0 0 1,1 l 0.500106,0 a 1,1 135 0 0 1,-1 v -7.999907 -9.999906 a 1,1 45 0 0 -1,-1 h -0.500106 a 1,1 135 0 0 -1,1 z m 4.999695,2.607076 0,3.560052 a 1,1 45 0 0 1,1 h 0.50011 a 1,1 135 0 0 1,-1 l 0,-3.560052 a 1,1 45 0 0 -1,-1 h -0.50011 a 1,1 135 0 0 -1,1 z m 5.05861,4.535124 v 3.712829 a 0.97994993,0.97994993 44.419811 0 0 0.99979,0.979749 l 0.50052,-0.01014 a 1.0204603,1.0204603 134.41981 0 0 0.99979,-1.020251 l 0,-3.611027 a 1.0206733,1.0206733 45.586168 0 0 -0.99979,-1.02046 l -0.50052,-0.01024 a 0.97974538,0.97974538 135.58617 0 0 -0.99979,0.97954 z M 99.69314,44.885 v 3.560542 a 1,1 45 0 0 1,1 h 0.50011 a 1,1 135 0 0 1,-1 V 44.885 a 1,1 45 0 0 -1,-1 h -0.50011 a 1,1 135 0 0 -1,1 z m 5.02315,3.636607 -0.0165,2.52328 a 1.0005059,1.0005059 45.388161 0 0 0.99346,1.007007 l 0.50015,0.0035 a 0.99946927,0.99946927 135.38744 0 0 1.00648,-0.992951 l 0.0164,-2.525347 a 0.99970443,0.99970443 45.363765 0 0 -0.99348,-1.00618 l -0.50005,-0.0031 a 1.0003207,1.0003207 135.36448 0 0 -1.0065,0.993778 z m -5.02315,4.533078 v 2.048848 a 1,1 45 0 0 1,1 h 0.50011 a 1,1 135 0 0 1,-1 v -2.048848 a 1,1 45 0 0 -1,-1 h -0.50011 a 1,1 135 0 0 -1,1 z m -4.999695,2.023649 v 1.576009 a 1,1 45 0 0 1,1 h 0.500106 a 1,1 135 0 0 1,-1 v -1.576009 a 1,1 45 0 0 -1,-1 l -0.500106,0 a 1,1 135 0 0 -1,1 z m 10.013345,0.521415 v 2.788855 a 1,1 45 0 0 1,1 h 0.5001 a 1,1 135 0 0 1,-1 v -2.788855 a 1,1 45 0 0 -1,-1 h -0.5001 a 1,1 135 0 0 -1,1 z m -5.01365,4.058667 v 0.827734 a 1,1 45 0 0 1,1 h 0.50011 a 1,1 135 0 0 1,-1 v -0.827734 a 1,1 45 0 0 -1,-1 h -0.50011 a 1,1 135 0 0 -1,1 z m 5.01365,2.599325 v 0.144572 a 1,1 45 0 0 1,1 h 0.5001 a 1,1 135 0 0 1,-1 V 62.25776 a 1.0000076,1.0000076 45.000218 0 0 -1,-1.000008 l -0.5001,-3e-6 a 0.9999924,0.9999924 135.00022 0 0 -1,0.999992 z"
       inkscape:path-effect="#path-effect6530"
       inkscape:original-d="m 104.70679,20.705196 v 2.144572 h 2.5001 v -2.144572 z m -5.01365,1.915645 v 2.828252 h 2.50011 v -2.828252 z m 10.00042,0.822689 v 18.6092 0.0021 18.6092 h 2.49959 v -18.6092 -0.0021 -18.6092 z m -4.98677,1.275375 v 4.788855 h 2.5001 v -4.788855 z m -10.013345,1.734261 v 3.576009 h 2.500106 v -3.576009 z m 4.999695,1.550809 v 4.050916 h 2.50011 v -4.050916 z m 7.50032,4.041097 -2.50011,0.01757 0.0295,4.523239 2.5001,-0.01589 z m -12.500015,0.0098 v 9.999906 9.999907 h 2.500106 v -9.999907 -9.999906 z m 4.999695,2.607076 V 40.222 h 2.50011 v -5.560052 z m 5.05861,4.535124 c 0,1.904276 0,3.808553 0,5.712829 l 2.5001,-0.05064 c 0,-1.870342 0,-3.740685 0,-5.611027 z M 99.69314,43.885 v 5.560542 h 2.50011 V 43.885 Z m 5.02967,3.636628 -0.0295,4.523238 2.50011,0.01757 0.0294,-4.525305 z m -5.02967,4.533057 v 4.048848 h 2.50011 v -4.048848 z m -4.999695,2.023649 v 3.576009 h 2.500106 v -3.576009 z m 10.013345,0.521415 v 4.788855 h 2.5001 v -4.788855 z m -5.01365,4.058667 v 2.827734 h 2.50011 v -2.827734 z m 5.01365,2.599325 v 2.144572 h 2.5001 V 61.25776 Z"
       sodipodi:nodetypes="ccccccccccccccccccccccccccccccccccccccccccccccccccccccccccccccccccccccccccccccccccccccccccc" />
    <path
       id="path7544"
       style="color:#000000;fill:#000000;stroke-width:0.324411;-inkscape-stroke:none"
       d="m 77.647396,32.163797 c 1.060329,1.188157 3.290007,4.238907 3.53495,9.097221 0.02205,0.437429 0.02559,1.148354 0.0064,1.586265 -0.209496,4.777009 -2.477507,7.883848 -3.545933,9.092754 -0.289991,0.328119 -0.195406,0.570363 0.24297,0.570363 h 0.322677 c 0.438376,0 1.05979,-0.236677 1.358955,-0.556885 1.130011,-1.209496 3.584418,-4.355457 3.868576,-9.107051 0.02615,-0.437263 0.03173,-1.14844 0.0082,-1.586118 -0.24151,-4.499646 -2.761021,-7.814236 -3.894643,-9.089252 -0.291056,-0.327358 -0.902751,-0.573972 -1.341127,-0.573972 h -0.322677 c -0.438376,0 -0.530145,0.239724 -0.238369,0.566675 z m -4.127614,2.747411 c 0.969974,0.912598 2.790989,3.040653 3.066183,6.350219 0.0363,0.436515 0.04068,1.148397 0.0073,1.585377 -0.248653,3.255684 -2.099242,5.417709 -3.077309,6.345612 -0.31768,0.301387 -0.246614,0.516018 0.191762,0.516018 l 0.134332,0 c 0.438376,0 1.08248,-0.208716 1.409024,-0.500884 1.036009,-0.926948 3.047142,-3.115952 3.363958,-6.361826 0.04255,-0.435934 0.04947,-1.148383 0.0086,-1.58466 -0.287995,-3.077197 -2.346577,-5.367595 -3.387859,-6.34327 -0.319647,-0.299508 -0.955388,-0.518706 -1.393764,-0.518706 h -0.134332 c -0.438376,0 -0.507028,0.211913 -0.187946,0.51212 z m -3.862288,3.35123 c 0.858792,0.49585 2.24069,1.5023 2.627068,3.006748 0.108713,0.423298 0.11628,1.146654 0.0095,1.570575 -0.373006,1.480744 -1.773012,2.498652 -2.638824,3.001873 -0.37863,0.220065 -0.349532,0.363163 0.08884,0.363163 l 0.0092,0 c 0.438376,0 1.122126,-0.138096 1.506863,-0.347845 0.920369,-0.501762 2.455812,-1.534569 2.89494,-3.021457 0.123725,-0.418933 0.134635,-1.146513 0.0074,-1.564149 -0.430262,-1.412082 -1.986166,-2.47845 -2.910791,-3.004477 -0.380753,-0.216613 -1.060017,-0.364144 -1.498393,-0.364144 l -0.0092,0 c -0.438376,0 -0.466052,0.140614 -0.08658,0.359713 z"
       inkscape:path-effect="#path-effect7694"
       inkscape:original-d="m 77.092015,31.597122 c 0,0 4.078841,3.532795 4.112107,10.456639 0.0326,6.777171 -4.112107,10.456639 -4.112107,10.456639 h 1.910177 c 0,0 4.410444,-3.762324 4.460348,-10.456639 0.04678,-6.266667 -4.460348,-10.456639 -4.460348,-10.456639 z m -4.178037,2.801966 c 0,0 3.677014,2.586135 3.707009,7.654673 0.02932,4.961168 -3.707009,7.654673 -3.707009,7.654673 h 1.721832 c 0,0 3.976303,-2.75416 4.021307,-7.654673 0.04223,-4.587457 -4.021307,-7.654673 -4.021307,-7.654673 z m -3.963654,3.503637 c 0,0 3.409542,1.402467 3.437357,4.151036 0.0272,2.690343 -3.437357,4.151036 -3.437357,4.151036 h 1.596675 c 0,0 3.686613,-1.493584 3.728347,-4.151036 0.03906,-2.487687 -3.728347,-4.151036 -3.728347,-4.151036 z" />
  </g>
  <metadata
     id="metadata36730">
    <rdf:RDF>
      <cc:Work
         rdf:about="">
        <cc:license
           rdf:resource="http://creativecommons.org/licenses/by-nc/4.0/" />
        <dc:title>epicki soundbard V3 logo</dc:title>
      </cc:Work>
      <cc:License
         rdf:about="http://creativecommons.org/licenses/by-nc/4.0/">
        <cc:permits
           rdf:resource="http://creativecommons.org/ns#Reproduction" />
        <cc:permits
           rdf:resource="http://creativecommons.org/ns#Distribution" />
        <cc:requires
           rdf:resource="http://creativecommons.org/ns#Notice" />
        <cc:requires
           rdf:resource="http://creativecommons.org/ns#Attribution" />
        <cc:prohibits
           rdf:resource="http://creativecommons.org/ns#CommercialUse" />
        <cc:permits
           rdf:resource="http://creativecommons.org/ns#DerivativeWorks" />
      </cc:License>
    </rdf:RDF>
  </metadata>
</svg>
